<svg id="logo" xmlns="http://www.w3.org/2000/svg" viewBox="0 0 378 51.749">
  <defs>
    <style>
      .cls-1 {
        fill: #0072bc;
      }

      .cls-2 {
        fill: #fff;
      }
    </style>
  </defs>
  <path id="Path_46" data-name="Path 46" class="cls-1" d="M745.336,43.313,737,75.858l204.893-.3V43.09Z" transform="translate(-563.893 -32.969)"/>
  <g id="Group_51" data-name="Group 51" transform="translate(193.1 19.112)">
    <path id="Path_47" data-name="Path 47" class="cls-2" d="M822.12,81.922l2.706-.552V86.8a4.792,4.792,0,0,1,2.974-.895c2.821,0,4.4,1.677,4.4,4.651a5.287,5.287,0,0,1-1.144,3.622,5.022,5.022,0,0,1-4.021,1.43,12.453,12.453,0,0,1-4.918-.972Zm2.706,11.171a3.954,3.954,0,0,0,1.982.458,2.257,2.257,0,0,0,2.039-.916,3.738,3.738,0,0,0,.552-2c0-1.677-.82-2.668-2.21-2.668a2.351,2.351,0,0,0-1.926.916,2.232,2.232,0,0,0-.439,1.621v2.591Z" transform="translate(-822.12 -81.37)"/>
    <path id="Path_48" data-name="Path 48" class="cls-2" d="M875.362,106.265c.075,1.524,1.087,2.191,3.279,2.191a7.13,7.13,0,0,0,3.241-.723l.648,1.715a9.553,9.553,0,0,1-4.442.935c-3.678,0-5.489-1.506-5.489-4.594,0-3.22,1.926-5.109,5.221-5.109,3.2,0,4.841,1.524,4.841,4.5,0,.268-.019.514-.038,1.087Zm4.86-1.658a2.266,2.266,0,0,0-.362-1.181,2.356,2.356,0,0,0-2.039-.876,2.2,2.2,0,0,0-2.516,2.058Z" transform="translate(-860.743 -96.144)"/>
    <path id="Path_49" data-name="Path 49" class="cls-2" d="M918.44,101.82h3.011l2.746,6.137,2.746-6.137h2.687l-4.423,9.167h-2.44Z" transform="translate(-895.816 -97.017)"/>
    <path id="Path_50" data-name="Path 50" class="cls-2" d="M971.362,106.265c.075,1.524,1.088,2.191,3.279,2.191a7.13,7.13,0,0,0,3.241-.723l.648,1.715a9.552,9.552,0,0,1-4.442.935c-3.678,0-5.489-1.506-5.489-4.594,0-3.22,1.926-5.109,5.221-5.109,3.2,0,4.841,1.524,4.841,4.5,0,.268-.019.514-.037,1.087Zm4.86-1.658a2.266,2.266,0,0,0-.362-1.181,2.356,2.356,0,0,0-2.039-.876,2.2,2.2,0,0,0-2.516,2.058Z" transform="translate(-934.195 -96.144)"/>
    <path id="Path_51" data-name="Path 51" class="cls-2" d="M1024.43,85.066a1.563,1.563,0,0,1-1.621,1.524,1.518,1.518,0,1,1,1.621-1.524Zm-2.992,2.783h2.706v9.167h-2.706Z" transform="translate(-974.417 -83.046)"/>
    <path id="Path_52" data-name="Path 52" class="cls-2" d="M1048.27,81.922l2.706-.552V95.341h-2.706Z" transform="translate(-995.152 -81.37)"/>
    <path id="Path_53" data-name="Path 53" class="cls-2" d="M1076.2,85.066a1.564,1.564,0,0,1-1.621,1.524,1.518,1.518,0,1,1,1.621-1.524Zm-2.992,2.783h2.706v9.167h-2.706Z" transform="translate(-1014.027 -83.046)"/>
    <path id="Path_54" data-name="Path 54" class="cls-2" d="M1103.554,109.467a4.505,4.505,0,0,1-2.974.916c-2.783,0-4.27-1.524-4.27-4.345a5.858,5.858,0,0,1,1.2-3.775,5.424,5.424,0,0,1,4.308-1.583,14.075,14.075,0,0,1,4.442.742v7.356a7.772,7.772,0,0,1-.592,3.812c-.7,1.334-2.344,2.039-4.707,2.039a9.876,9.876,0,0,1-4.021-.8l.686-1.926a6.647,6.647,0,0,0,3.145.763c2.079,0,2.783-.648,2.783-2.534Zm0-6.384a4.105,4.105,0,0,0-1.733-.343c-1.734,0-2.706,1.106-2.706,3.068,0,1.658.7,2.516,2.1,2.516a2.3,2.3,0,0,0,1.926-.916,2.325,2.325,0,0,0,.42-1.621v-2.7Z" transform="translate(-1031.908 -96.144)"/>
    <path id="Path_55" data-name="Path 55" class="cls-2" d="M1154.75,85.066a1.563,1.563,0,0,1-1.621,1.524,1.518,1.518,0,1,1,1.621-1.524Zm-2.992,2.783h2.706v9.167h-2.706Z" transform="translate(-1074.127 -83.046)"/>
    <path id="Path_56" data-name="Path 56" class="cls-2" d="M1178.27,100.948h2.25l.209,1.238a5.417,5.417,0,0,1,3.831-1.506,3.4,3.4,0,0,1,3.03,1.219,4.375,4.375,0,0,1,.439,2.4v5.813h-2.706v-5.28c0-1.449-.362-1.907-1.487-1.907a3.87,3.87,0,0,0-2.859,1.583v5.6h-2.706v-9.165Z" transform="translate(-1094.617 -96.144)"/>
    <path id="Path_57" data-name="Path 57" class="cls-2" d="M1237.124,109.467a4.505,4.505,0,0,1-2.974.916c-2.783,0-4.27-1.524-4.27-4.345a5.859,5.859,0,0,1,1.2-3.775,5.425,5.425,0,0,1,4.308-1.583,14.075,14.075,0,0,1,4.442.742v7.356a7.773,7.773,0,0,1-.592,3.812c-.7,1.334-2.344,2.039-4.707,2.039a9.878,9.878,0,0,1-4.021-.8l.686-1.926a6.647,6.647,0,0,0,3.145.763c2.079,0,2.783-.648,2.783-2.534Zm0-6.384a4.105,4.105,0,0,0-1.733-.343c-1.734,0-2.706,1.106-2.706,3.068,0,1.658.7,2.516,2.1,2.516a2.3,2.3,0,0,0,1.926-.916,2.325,2.325,0,0,0,.42-1.621v-2.7Z" transform="translate(-1134.105 -96.144)"/>
  </g>
  <path id="Path_58" data-name="Path 58" class="cls-1" d="M0,44.04V76.585H26.981L35.319,44.04Z" transform="translate(0 -33.696)"/>
  <path id="Path_59" data-name="Path 59" d="M136.827,0,123.61,51.749H260.963L274.18,0Z" transform="translate(-94.576)"/>
  <g id="Group_52" data-name="Group 52" transform="translate(44.515 12.263)">
    <path id="Path_60" data-name="Path 60" class="cls-2" d="M196.55,53.66h16.9a45.762,45.762,0,0,1,6.847.463,20.3,20.3,0,0,1,5.151,1.409,8.2,8.2,0,0,1,3.272,2.462,5.751,5.751,0,0,1,1.153,3.575,7.762,7.762,0,0,1-2.607,5.914,15.947,15.947,0,0,1-6.969,3.556l6.485,10.309H213.393l-4.726-8.963h-3.939l-2.3,8.963H189.52Zm14.422,13a12.071,12.071,0,0,0,2.3-.209,5.936,5.936,0,0,0,1.907-.693,3.524,3.524,0,0,0,1.273-1.261,3.746,3.746,0,0,0,.456-1.917,2.029,2.029,0,0,0-1.151-1.914,7.116,7.116,0,0,0-3.272-.611h-4.667l-1.635,6.607h4.787Z" transform="translate(-189.52 -53.319)"/>
    <path id="Path_61" data-name="Path 61" class="cls-2" d="M372.863,69.8a20.516,20.516,0,0,0,6.213,2.8,30.761,30.761,0,0,0,8.331,1.031,6.62,6.62,0,0,0,2.819-.444,1.315,1.315,0,0,0,.878-1.156q0-.634-1.151-1.095a24.3,24.3,0,0,0-3.272-.968l-3.333-.8a16.69,16.69,0,0,1-6.574-2.819,5.307,5.307,0,0,1-2.09-4.251,7.247,7.247,0,0,1,1.513-4.669,10.767,10.767,0,0,1,4.089-3.051,22.794,22.794,0,0,1,5.968-1.663,48.677,48.677,0,0,1,7.15-.5,42.859,42.859,0,0,1,4.756.254q2.272.25,4.181.611t3.331.756q1.423.4,2.152.693l-2.06,8.038q-1.455-.634-3.272-1.243t-3.728-1.073c-1.271-.308-2.537-.554-3.786-.738a25.06,25.06,0,0,0-3.575-.272,6.433,6.433,0,0,0-2.6.4,1.232,1.232,0,0,0-.848,1.116c0,.449.355.822,1.062,1.116a23.87,23.87,0,0,0,3.361.989l3.878.925q8.6,2.019,8.6,6.774a6.968,6.968,0,0,1-1.334,4.167,10.781,10.781,0,0,1-3.789,3.154,22.191,22.191,0,0,1-5.877,2.022,37.623,37.623,0,0,1-7.664.714q-3.576,0-6.149-.209t-4.423-.524a25.664,25.664,0,0,1-3.03-.674c-.787-.24-1.445-.444-1.968-.611Z" transform="translate(-328.083 -52.21)"/>
    <path id="Path_62" data-name="Path 62" class="cls-2" d="M542.508,53.66h30.661L571.532,60.1H553.777l-1.033,4.15,17.755-.014-1.329,5.2H551.417l-1.4,5.515h17.755l-1.637,6.393H535.48Z" transform="translate(-454.221 -53.319)"/>
  </g>
</svg>
